<svg xmlns="http://www.w3.org/2000/svg" width="66" height="13" viewBox="0 2 66 13"><path fill-rule="evenodd" d="M37.486 5.86c.91 0 1.716.195 2.415.582a4.204 4.204 0 0 1 1.64 1.613c.393.69.59 1.478.59 2.367 0 .888-.197 1.677-.59 2.366-.395.689-.942 1.23-1.64 1.623-.699.393-1.505.589-2.415.589-.9 0-1.7-.196-2.399-.59a4.254 4.254 0 0 1-1.64-1.622c-.394-.69-.592-1.478-.592-2.366 0-.889.198-1.678.593-2.367a4.204 4.204 0 0 1 1.64-1.613c.699-.387 1.498-.582 2.398-.582ZM19.333 2.427v12.3h-2.18v-1.095c-.29.422-.675.756-1.16 1-.482.244-1.04.368-1.672.368a3.982 3.982 0 0 1-2.116-.58 4.233 4.233 0 0 1-1.514-1.616c-.379-.688-.567-1.483-.567-2.382 0-.9.188-1.692.567-2.374a4.248 4.248 0 0 1 1.514-1.606 3.943 3.943 0 0 1 2.1-.581c.643 0 1.203.128 1.68.383.479.257.862.601 1.15 1.034v-4.85h2.198Zm-10.957.085v1.949H2.247v3.108H8.06v1.947H2.247v3.264h6.129v1.946H0V2.512h8.376Zm15.422 3.622v8.592h-2.2V6.134h2.2Zm5.527-2.272v2.272h2.082v1.827h-2.082v4.03c0 .593.277.89.833.89h1.349v1.845h-2.098c-1.522 0-2.282-.78-2.282-2.341V7.96H25.66V6.134h1.466V3.862h2.198ZM49.31 5.98v2.05h-.45c-.777 0-1.4.236-1.866.708-.465.474-.7 1.246-.7 2.315v3.673h-2.197V6.133h2.182v1.692c.188-.467.432-.833.732-1.102.3-.267.624-.458.975-.571.349-.114.691-.172 1.024-.172h.3Zm7.878-3.47 4.405 6.108-4.405 6.108H54.09l4.407-6.108L54.09 2.51h3.098Zm5.641 7.82L66 14.726h-3.097l-1.622-2.25 1.548-2.146Zm-48.06-2.59c-.709 0-1.282.253-1.714.76-.433.507-.65 1.147-.65 1.922 0 .784.225 1.432.675 1.939.45.506 1.042.76 1.774.76.532 0 1.005-.137 1.415-.41.411-.275.7-.638.866-1.094V10.49c0-.843-.222-1.512-.665-2.007-.446-.497-1.011-.743-1.7-.743Zm22.717 0c-.7 0-1.266.25-1.7.75-.432.503-.648 1.145-.648 1.932 0 .796.216 1.447.649 1.947.433.501 1 .752 1.699.752.71 0 1.282-.25 1.716-.752.432-.5.648-1.15.648-1.947 0-.787-.216-1.43-.648-1.931-.434-.501-1.006-.75-1.716-.75ZM66 2.51l-3.171 4.396-1.548-2.146 1.622-2.25H66ZM22.698 2c.377 0 .693.128.948.385.256.255.384.57.384.948 0 .364-.128.675-.384.93-.255.258-.571.385-.948.385-.378 0-.695-.127-.95-.385a1.269 1.269 0 0 1-.383-.93c0-.377.128-.693.383-.948.255-.257.572-.385.95-.385Z"></path></svg>