<svg width="360" height="783" viewBox="0 0 360 783" fill="none" xmlns="http://www.w3.org/2000/svg">
<g filter="url(#filter0_f_23_345)">
<ellipse cx="183.878" cy="484" rx="148.5" ry="284" fill="url(#paint0_linear_23_345)" fill-opacity="0.99"/>
</g>
<g clip-path="url(#clip0_23_345)">
<rect x="55" y="299" width="251" height="258" rx="125.5" fill="url(#paint1_linear_23_345)"/>
<path fill-rule="evenodd" clip-rule="evenodd" d="M146.997 701.103C145.989 639.193 124.309 508.69 121.195 475.078C118.081 441.466 129.158 430.082 139.778 435.628C150.399 441.175 153.576 518.726 153.576 518.726C153.576 518.726 154.308 533.904 157.079 551.188C167.1 613.672 160.067 701.992 160.067 701.992C160.067 701.992 158.124 707.746 152.245 706.979C146.368 706.213 146.997 701.103 146.997 701.103Z" fill="#FFC999"/>
<path fill-rule="evenodd" clip-rule="evenodd" d="M84.8289 698.401C85.8374 636.49 107.517 505.987 110.63 472.375C113.745 438.763 102.667 427.38 92.048 432.926C81.4275 438.472 78.2492 516.024 78.2492 516.024C78.2492 516.024 77.5186 531.202 74.7467 548.486C64.7261 610.97 71.7596 699.289 71.7596 699.289C71.7596 699.289 73.702 705.043 79.5807 704.276C85.4573 703.51 84.8289 698.401 84.8289 698.401Z" fill="#FFC999"/>
<path fill-rule="evenodd" clip-rule="evenodd" d="M91.2588 419.75L91.9663 415.116C91.9663 415.116 111.077 415.134 133.881 415.286C134.037 417.649 134.664 420.522 134.664 420.522C134.664 420.522 118.186 426.49 91.2588 419.75Z" fill="#002AB3"/>
<path fill-rule="evenodd" clip-rule="evenodd" d="M137.596 386.622L135.99 391.051C135.99 391.051 135.55 412.933 135.55 414.667C113.653 418.494 91.4794 414.366 91.4794 414.366L91.587 406.267L89.804 381.423L137.596 386.622Z" fill="white"/>
<path d="M137.264 386.289C137.335 386.091 137.542 385.994 137.726 386.071C137.889 386.14 137.978 386.324 137.946 386.503L137.928 386.57L136.345 390.936L135.706 414.262C135.701 414.563 135.698 414.774 135.698 414.891C135.698 415.076 135.575 415.236 135.406 415.269C122.776 417.801 109.85 417.66 97.9605 415.904C96.2649 415.654 94.7256 415.387 93.3611 415.119L92.9127 415.03C92.4826 414.942 92.097 414.861 91.7576 414.785L91.0875 414.63C90.9395 414.593 90.8319 414.461 90.8137 414.303L90.8115 414.234L91.2312 406.053C91.2421 405.84 91.4103 405.678 91.6069 405.689C91.7816 405.7 91.92 405.845 91.9409 406.026L91.9431 406.095L91.5396 413.949L91.706 413.987C91.9594 414.044 92.2425 414.106 92.5545 414.172L93.0441 414.273C94.5057 414.569 96.1851 414.865 98.0571 415.141C109.62 416.849 122.171 417.02 134.458 414.673L134.988 414.568L135.045 411.995L135.338 401.193L135.634 390.847L135.659 390.719L137.264 386.289Z" fill="#1F1F47"/>
<path fill-rule="evenodd" clip-rule="evenodd" d="M159.391 304.984C159.391 304.984 170.176 303.294 173.026 315.606C183.476 319.711 180.627 332.022 180.627 332.022C180.627 332.022 185.875 341.695 175.449 346.649C174.614 356.559 164.188 354.757 164.188 354.757C164.188 354.757 161.685 362.415 153.761 359.262C145.211 366.444 135.025 357.673 135.025 357.673C135.025 357.673 125.525 361.778 121.726 357.673C113.175 360.751 103.674 349.465 103.674 349.465C103.674 349.465 98.3368 350.929 94.5366 341.695C84.6105 343.358 73.7659 329.695 82.8582 316.92C76.8937 306.723 83.692 300.704 83.692 300.704C83.692 300.704 81.8156 277.281 96.8306 274.128C104.545 261.515 121.229 271.651 121.229 271.651C121.229 271.651 132.281 269.173 136.244 279.534C148.594 281.585 148.015 288.917 148.965 295.074C160.016 295.749 159.391 304.984 159.391 304.984Z" fill="black"/>
<path fill-rule="evenodd" clip-rule="evenodd" d="M125.122 293.546C116.462 295.187 113.83 288.111 113.83 288.111C113.83 288.111 110.258 278.144 109.343 284.263C108.856 287.515 104.201 283.2 102.061 286.667C100.62 289 104.222 292.006 99.5416 298.226C96.8302 301.83 107.524 304.706 100.927 311.348C100.927 311.348 105.618 319.455 97.5597 322.1L95.7777 331.54L114.349 331.509L113.751 320.638C126.264 320.638 126.875 302.064 125.122 293.546Z" fill="#FFC999"/>
<path d="M109.158 303.433C109.374 303.199 109.726 303.199 109.943 303.433L110.056 303.545C110.108 303.594 110.174 303.653 110.254 303.721C110.525 303.953 110.844 304.185 111.206 304.403C112.435 305.141 113.837 305.523 115.381 305.362C115.686 305.33 115.958 305.571 115.987 305.901C116.017 306.23 115.793 306.524 115.488 306.556C113.702 306.743 112.08 306.301 110.666 305.452C109.949 305.021 109.439 304.586 109.158 304.281C108.941 304.047 108.941 303.667 109.158 303.433Z" fill="#F5222D"/>
<path d="M115.99 294.057C116.21 294.074 116.38 294.261 116.4 294.49L116.4 294.574C116.39 294.891 116.448 295.422 116.641 296.145C116.953 297.309 117.535 298.615 118.456 300.041C118.601 300.265 118.543 300.575 118.329 300.72L117.754 301.106C117.01 301.6 116.353 302.015 115.783 302.357L115.573 302.482C115.414 302.576 115.268 302.66 115.137 302.735L114.688 302.979C114.677 302.985 114.667 302.99 114.659 302.994C114.437 303.105 114.174 303 114.071 302.76C113.969 302.52 114.066 302.236 114.288 302.126L114.493 302.017L114.858 301.812C114.949 301.76 115.045 301.704 115.148 301.643C115.677 301.331 116.29 300.948 116.987 300.491L117.468 300.171L117.358 299.99C116.651 298.805 116.164 297.692 115.862 296.665L115.79 296.41C115.59 295.663 115.515 295.072 115.514 294.658L115.517 294.5C115.534 294.237 115.746 294.038 115.99 294.057Z" fill="#DD936F"/>
<path fill-rule="evenodd" clip-rule="evenodd" d="M117.772 406.333C117.772 406.333 141.509 413.132 152.337 404.981C164.107 396.123 149.694 362.414 145.924 353.631C142.689 346.089 135.634 341.203 129.214 340.048C122.897 338.911 118.07 338.506 118.07 338.506L116.682 332.666C116.48 331.816 115.77 331.22 114.957 331.22L96.0321 331.22C95.1455 331.22 94.3951 331.925 94.2688 332.872L93.5382 338.403C93.5382 338.403 77.608 337.758 70.0681 345.298C62.8468 352.52 64.9331 368.73 70.9909 383.733C77.0477 398.738 82.1497 410.645 92.278 411.739C111.002 413.76 140.271 396.155 140.271 396.155C140.271 396.155 145.263 393.267 149.9 394.037C148.83 387.103 145.263 382.096 134.92 384.985L98.0074 393.267" fill="white"/>
<path fill-rule="evenodd" clip-rule="evenodd" d="M140.448 372.948C140.448 372.948 142.233 379.303 138.532 384.455L138.933 391.099L112.719 406.412C112.719 406.412 141.249 413.515 152.65 406.333C161.2 400.946 158.743 385.625 152.181 370.185C152.181 370.185 147.019 368.496 140.448 372.948Z" fill="#FFC999"/>
<path fill-rule="evenodd" clip-rule="evenodd" d="M89.0905 374.681L96.4019 391.822L125.644 383.248C134.383 380.743 143.658 384.311 145.977 391.822C141.697 392.4 133.583 394.422 133.583 394.422C133.583 394.422 105.497 413.344 91.3196 412.623C81.1517 412.104 77.1956 399.315 71.1377 384.311C71.1377 384.311 74.8247 375.837 89.0905 374.681Z" fill="#FFC999"/>
<path d="M136.704 356.385C136.901 356.385 137.061 356.557 137.061 356.77L137.055 357.306L137.044 357.838C137.037 358.114 137.027 358.407 137.016 358.712C136.969 359.924 136.891 361.136 136.776 362.293L136.721 362.796L136.887 362.981C138.009 364.264 138.904 365.627 139.586 367.062L139.752 367.422C141.763 371.922 141.631 376.717 140.207 381.242C139.979 381.968 139.734 382.623 139.488 383.198L139.364 383.483L139.155 383.922C139.059 384.108 138.841 384.174 138.67 384.069C138.498 383.965 138.437 383.731 138.533 383.545L138.635 383.337C138.691 383.217 138.761 383.063 138.841 382.876C139.076 382.324 139.312 381.694 139.532 380.994C140.901 376.643 141.027 372.048 139.11 367.756C138.39 366.146 137.393 364.624 136.094 363.203C136.018 363.119 135.981 363.002 135.994 362.885C136.149 361.549 136.248 360.114 136.303 358.68L136.331 357.817L136.347 356.892L136.348 356.77C136.348 356.557 136.507 356.385 136.704 356.385Z" fill="#1F1F47"/>
<path d="M110.459 338.307C110.656 338.307 110.816 338.479 110.816 338.692C110.816 338.881 110.69 339.038 110.523 339.071L110.459 339.077L93.4184 339.077C93.2215 339.077 93.0619 338.904 93.0619 338.692C93.0619 338.503 93.188 338.346 93.3543 338.313L93.4184 338.307L110.459 338.307Z" fill="#1F1F47"/>
<path d="M118.468 338.362C118.525 338.121 118.752 337.976 118.975 338.038C119.175 338.094 119.304 338.298 119.286 338.514L119.275 338.586L113.657 362.179C113.581 362.498 113.23 362.616 113 362.424L112.95 362.374L92.5317 338.781C92.3747 338.599 92.3836 338.315 92.5516 338.145C92.701 337.995 92.9257 337.985 93.0841 338.113L93.1401 338.167L113.039 361.161L118.468 338.362Z" fill="black"/>
<path fill-rule="evenodd" clip-rule="evenodd" d="M119.167 364.694C121.056 368.136 120.204 372.453 117.265 374.336C114.324 376.219 110.408 374.954 108.519 371.513C106.629 368.071 107.481 363.754 110.42 361.871C113.361 359.988 117.276 361.252 119.167 364.694Z" fill="black"/>
<path fill-rule="evenodd" clip-rule="evenodd" d="M119.845 364.677C121.736 368.119 120.883 372.436 117.943 374.318C115.003 376.201 111.088 374.937 109.198 371.495C107.308 368.053 108.16 363.737 111.1 361.854C114.04 359.971 117.955 361.235 119.845 364.677Z" fill="black"/>
<path fill-rule="evenodd" clip-rule="evenodd" d="M118.645 365.277C120.112 367.949 119.451 371.301 117.168 372.762C114.886 374.224 111.846 373.243 110.379 370.571C108.911 367.898 109.572 364.547 111.855 363.085C114.138 361.622 117.178 362.605 118.645 365.277Z" fill="#8352FD"/>
<path d="M105.386 318.383C105.503 318.151 105.771 318.065 105.986 318.191C108.408 319.614 110.918 320.329 113.436 320.366C113.68 320.37 113.876 320.587 113.873 320.851C113.869 321.115 113.668 321.326 113.424 321.322C110.761 321.283 108.11 320.528 105.563 319.031C105.348 318.905 105.269 318.614 105.386 318.383Z" fill="#DD936F"/>
<path fill-rule="evenodd" clip-rule="evenodd" d="M109.274 387.977C109.274 387.977 98.596 378.315 92.0338 378.822C85.7914 379.304 82.0473 384.792 83.1162 387.874C83.1162 387.874 81.6913 390.571 84.0083 391.437C83.6963 393.411 86.3264 393.267 86.3264 393.267C86.3264 393.267 85.8815 394.518 87.7536 394.807C89.6256 395.096 91.6933 390.954 96.5536 391.806L109.274 387.977Z" fill="#FFC999"/>
<path d="M91.7665 378.092C88.8425 378.318 85.7046 380.567 83.4502 383.572C82.5041 384.833 81.8523 386.075 81.6687 386.985L81.6468 387.107C81.5269 387.869 81.7687 388.414 82.2873 388.593L82.3198 388.603L82.2795 388.704C82.1332 389.091 82.0625 389.484 82.0995 389.874L82.1172 390.012C82.2137 390.6 82.5641 391.085 83.1698 391.424L83.305 391.495L83.3048 391.527C83.311 392.468 83.8979 393.065 84.8031 393.333L84.9947 393.384C85.186 393.43 85.376 393.459 85.5581 393.476L85.6084 393.479L85.6118 393.518C85.6329 393.696 85.6862 393.876 85.7807 394.052C86.0531 394.561 86.6069 394.896 87.4564 395.027C87.9295 395.1 88.3974 394.972 88.9524 394.661L89.1216 394.563C89.466 394.355 90.7803 393.418 90.7959 393.407C92.6295 392.156 94.1822 391.663 96.248 392.025C96.3085 392.035 96.3704 392.032 96.4297 392.016L109.64 388.329C109.991 388.231 110.09 387.743 109.808 387.495L109.332 387.089L108.848 386.687C108.593 386.477 108.32 386.256 108.03 386.026C106.648 384.927 105.163 383.828 103.629 382.802C101.86 381.617 100.14 380.607 98.5109 379.824C96.0175 378.626 93.8276 378.003 92.0118 378.077L91.7665 378.092ZM98.151 380.698C99.7397 381.461 101.425 382.451 103.163 383.615C104.674 384.626 106.141 385.711 107.505 386.796L108.141 387.308L108.551 387.645L96.2952 391.065L96.3899 391.081C94.1682 390.691 92.4592 391.193 90.5528 392.445L90.323 392.598C90.282 392.626 89.0002 393.54 88.6894 393.728C88.2124 394.016 87.8708 394.125 87.5817 394.08C86.9796 393.988 86.6679 393.799 86.5471 393.573C86.497 393.48 86.4815 393.378 86.49 393.279L86.5051 393.185C86.6117 392.885 86.4204 392.567 86.1315 392.538L86.0494 392.537C85.7573 392.545 85.3852 392.514 85.0375 392.411C84.3944 392.22 84.1126 391.885 84.2111 391.265C84.2478 391.034 84.1244 390.809 83.9196 390.732C83.282 390.494 83.0181 390.174 82.9804 389.777C82.9537 389.495 83.0397 389.161 83.206 388.82C83.2967 388.634 83.3867 388.492 83.4404 388.42C83.7065 388.064 83.4018 387.547 82.9903 387.656L82.8308 387.694C82.4758 387.766 82.4396 387.656 82.5339 387.189C82.6827 386.451 83.2714 385.33 84.1383 384.174C86.2528 381.355 89.1905 379.249 91.8296 379.046C93.5193 378.915 95.6651 379.503 98.151 380.698Z" fill="#DD936F"/>
<path d="M91.7113 381.429C91.954 381.396 92.1753 381.582 92.2056 381.844C92.2359 382.106 92.0638 382.345 91.8211 382.378C90.137 382.605 88.3124 383.643 86.4761 385.236C85.7323 385.882 85.0381 386.574 84.4134 387.267L84.1045 387.616L83.7304 388.061C83.6863 388.115 83.6539 388.155 83.6338 388.181C83.4767 388.384 83.1974 388.41 83.0101 388.24C82.8228 388.07 82.7984 387.769 82.9555 387.566L83.175 387.296C83.3498 387.085 83.552 386.851 83.7791 386.599C84.4275 385.881 85.1475 385.162 85.9215 384.491C87.8741 382.797 89.8328 381.682 91.7113 381.429Z" fill="#DD936F"/>
<path d="M94.6564 384.011C94.9008 384.002 95.1055 384.209 95.1136 384.473C95.1218 384.736 94.9302 384.958 94.6858 384.966C94.538 384.972 94.3887 384.982 94.2381 384.997C92.1483 385.211 89.8767 386.368 87.5833 388.167C86.6795 388.876 85.8352 389.637 85.0747 390.397C84.8752 390.596 84.6925 390.785 84.5277 390.96L84.1537 391.368C84.1422 391.381 84.1323 391.393 84.124 391.402C83.9573 391.595 83.6772 391.606 83.4983 391.426C83.3194 391.246 83.3096 390.943 83.4763 390.75L83.7415 390.455L84.0836 390.092C84.2057 389.965 84.3356 389.833 84.4731 389.695C85.258 388.91 86.1287 388.126 87.0629 387.393C89.4729 385.502 91.8775 384.278 94.1546 384.045C94.3231 384.028 94.4903 384.016 94.6564 384.011Z" fill="#DD936F"/>
<path d="M94.6427 387.051C94.8867 387.034 95.0971 387.234 95.1126 387.498C95.1282 387.761 94.9429 387.989 94.6989 388.005C93.9431 388.057 93.0041 388.408 91.9312 389.015C91.1751 389.442 90.372 389.986 89.5427 390.618C88.7764 391.202 88.0303 391.829 87.3347 392.455L86.9881 392.772L86.4459 393.286C86.2657 393.465 85.9856 393.452 85.8203 393.257C85.655 393.063 85.667 392.76 85.8471 392.582L86.0951 392.342L86.4118 392.046C86.524 391.942 86.6427 391.833 86.7675 391.721C87.4802 391.079 88.2447 390.437 89.0321 389.837C89.8912 389.182 90.7263 388.617 91.5204 388.167C92.6935 387.504 93.741 387.113 94.6427 387.051Z" fill="#DD936F"/>
<path d="M84.8532 362.167C85.0181 362.103 85.1975 362.179 85.2817 362.337L85.3085 362.4L89.2483 374.359C89.3284 374.603 89.1683 374.861 88.9294 374.873L88.7242 374.887C88.5532 374.9 88.3544 374.919 88.1301 374.943C87.4875 375.011 86.7709 375.113 85.9987 375.253C83.7934 375.653 81.5887 376.283 79.5346 377.189C75.7775 378.848 72.9616 381.24 71.4563 384.483C71.3681 384.673 71.1538 384.75 70.9778 384.655C70.8018 384.559 70.7307 384.328 70.8189 384.138C72.4123 380.705 75.3617 378.199 79.2648 376.476C81.3725 375.546 83.6268 374.903 85.8806 374.494C86.5377 374.374 87.1559 374.282 87.7245 374.214L88.228 374.159L88.4194 374.14L84.6368 362.658C84.5781 362.48 84.6481 362.287 84.7947 362.196L84.8532 362.167Z" fill="#1F1F47"/>
<path d="M143.751 370.809C146.498 369.528 149.414 369.005 152.294 369.683C152.486 369.728 152.608 369.934 152.566 370.141C152.524 370.349 152.335 370.481 152.142 370.436C149.428 369.797 146.655 370.294 144.034 371.516C143.503 371.764 143.014 372.026 142.573 372.29L142.315 372.449C142.013 372.639 141.804 372.784 141.698 372.865C141.537 372.987 141.315 372.945 141.202 372.771C141.088 372.598 141.127 372.357 141.288 372.235L141.466 372.107C141.606 372.009 141.77 371.9 141.956 371.784C142.486 371.451 143.087 371.119 143.751 370.809Z" fill="#1F1F47"/>
<path d="M138.369 383.624C138.465 383.382 138.726 383.269 138.95 383.373C140.522 384.101 141.971 385.268 143.289 386.752C144.095 387.658 144.804 388.628 145.41 389.598C145.57 389.853 145.713 390.094 145.841 390.319L146.064 390.722C146.106 390.802 146.138 390.863 146.158 390.905C146.288 391.167 146.166 391.485 145.916 391.581L145.851 391.6L137.78 393.276L111.135 407.719C110.939 407.826 110.703 407.759 110.578 407.573L110.541 407.506C110.442 407.294 110.504 407.04 110.676 406.905L110.738 406.864L137.437 392.392L137.552 392.35L145.069 390.788L144.96 390.6C144.916 390.526 144.871 390.449 144.823 390.371L144.676 390.133C144.096 389.206 143.419 388.278 142.651 387.414C141.408 386.016 140.053 384.924 138.602 384.252C138.377 384.148 138.273 383.867 138.369 383.624Z" fill="#DD936F"/>
<path d="M91.5709 419.517C91.6439 419.282 91.8799 419.154 92.0979 419.233L92.5457 419.386L92.9396 419.513C93.2166 419.602 93.522 419.695 93.8548 419.794C95.2836 420.217 96.9193 420.641 98.735 421.036C110.254 423.545 122.516 423.734 134.078 420.091C134.299 420.021 134.53 420.158 134.595 420.396C134.659 420.635 134.532 420.884 134.312 420.954C122.601 424.644 110.21 424.453 98.5703 421.918C96.7354 421.518 95.0812 421.09 93.6345 420.661L93.1481 420.515C92.9154 420.443 92.6984 420.375 92.4976 420.31L91.9406 420.124C91.8967 420.109 91.861 420.096 91.8337 420.086C91.6156 420.007 91.498 419.753 91.5709 419.517Z" fill="black"/>
<path d="M110.175 293.995C110.47 293.995 110.709 294.253 110.709 294.572C110.709 296.79 109.163 298.607 107.232 298.607C105.301 298.607 103.756 296.79 103.756 294.572C103.756 294.253 103.995 293.995 104.291 293.995C104.586 293.995 104.825 294.253 104.825 294.572C104.825 296.173 105.913 297.452 107.232 297.452C108.552 297.452 109.64 296.173 109.64 294.572C109.64 294.253 109.88 293.995 110.175 293.995Z" fill="black"/>
<path d="M123.658 294.392C123.938 294.392 124.165 294.637 124.165 294.939C124.165 297.13 122.776 298.944 121.01 298.944C119.244 298.944 117.855 297.13 117.855 294.939C117.855 294.637 118.082 294.392 118.362 294.392C118.642 294.392 118.869 294.637 118.869 294.939C118.869 296.567 119.851 297.849 121.01 297.849C122.169 297.849 123.151 296.567 123.151 294.939C123.151 294.637 123.378 294.392 123.658 294.392Z" fill="black"/>
<path d="M104.136 287.778C106.176 286.848 108.337 286.942 110.378 287.65C110.965 287.853 111.404 288.059 111.655 288.202C111.916 288.351 112.016 288.7 111.878 288.982C111.74 289.264 111.417 289.372 111.156 289.223L111.022 289.153C110.98 289.132 110.931 289.108 110.875 289.082C110.634 288.969 110.358 288.855 110.052 288.749C108.232 288.118 106.321 288.035 104.552 288.842C104.229 288.989 103.914 289.165 103.608 289.372C103.358 289.541 103.028 289.459 102.872 289.188C102.715 288.918 102.791 288.562 103.042 288.393C103.396 288.154 103.761 287.949 104.136 287.778Z" fill="black"/>
<path fill-rule="evenodd" clip-rule="evenodd" d="M132.943 419.509C142.327 420.184 165.267 483.893 173.921 506.668C172.85 511.291 166.101 519.506 166.101 519.506C166.101 519.506 166.871 523.166 167.345 525.364C159.422 532.571 143.99 536.626 143.99 536.626L143.99 539.778C119.382 552.391 86.1263 541.015 86.1263 541.015C86.1263 541.015 85.5001 540.339 85.9176 537.862C74.683 537.862 50.4669 522.772 50.4669 522.772L53.8035 515.115L43.7938 504.303C43.7938 504.303 74.3819 447.807 79.5928 435.387C85.3968 421.553 91.8096 418.984 91.8096 418.984C91.8096 418.984 116.293 418.309 132.943 419.509Z" fill="#002AB3"/>
<path d="M80.1196 455.012C80.2186 454.788 80.467 454.693 80.6746 454.8C80.8615 454.896 80.9515 455.123 80.8955 455.331L80.8714 455.399L51.4065 522.179L51.777 522.467L52.0913 522.704C52.8846 523.298 53.8195 523.961 54.8899 524.674C57.9513 526.716 61.4826 528.759 65.4355 530.665C71.7814 533.726 78.5948 536.135 85.788 537.646C86.0138 537.694 86.1612 537.93 86.1173 538.174C86.0733 538.418 85.8548 538.577 85.629 538.529C78.3706 537.004 71.4973 534.574 65.0959 531.486C61.1079 529.563 57.5441 527.502 54.4523 525.44C53.4895 524.798 52.6341 524.196 51.8905 523.647L51.6168 523.443C51.4473 523.316 51.2915 523.198 51.1493 523.088L50.7531 522.778C50.6976 522.734 50.6566 522.7 50.6303 522.679C50.4933 522.566 50.4369 522.376 50.4816 522.201L50.5071 522.128L80.1196 455.012Z" fill="black"/>
<path d="M139.985 449.157C140.178 449.075 140.393 449.159 140.495 449.346L140.525 449.412L168.151 525.65C168.222 525.847 168.158 526.07 167.996 526.187L167.802 526.325C167.645 526.436 167.459 526.564 167.246 526.708L166.701 527.071C166.228 527.382 165.705 527.716 165.136 528.068C162.863 529.472 160.317 530.876 157.558 532.187C153.182 534.266 148.688 535.91 144.182 536.953C143.957 537.005 143.736 536.85 143.687 536.607C143.639 536.365 143.782 536.126 144.007 536.073C148.454 535.044 152.895 533.42 157.223 531.364C159.954 530.067 162.474 528.677 164.723 527.287C165.509 526.801 166.206 526.35 166.804 525.945L167.252 525.638L139.749 449.739C139.674 449.531 139.752 449.299 139.925 449.189L139.985 449.157Z" fill="black"/>
<path d="M124.411 431.569C124.636 431.518 124.857 431.673 124.904 431.916L126.407 439.732C126.942 442.525 127.511 445.516 128.11 448.675L128.656 451.564C131.254 465.315 133.851 479.343 136.301 492.951L136.911 496.344C137.361 498.856 137.802 501.334 138.234 503.775L139.169 509.085C141.187 520.6 142.947 531.034 144.4 540.153C144.434 540.369 144.32 540.58 144.128 540.653C142.734 541.185 141.32 541.672 139.886 542.117C124.95 546.751 109.023 546.603 94.0255 543.572C91.726 543.108 89.6528 542.61 87.8397 542.112L87.2304 541.941C87.0361 541.886 86.8505 541.832 86.6738 541.78L85.9474 541.56C85.7797 541.508 85.6587 541.468 85.586 541.444C85.4046 541.383 85.2873 541.2 85.2925 541.001L85.3012 540.926L99.6977 463.911C99.7432 463.667 99.9628 463.51 100.188 463.559C100.391 463.603 100.53 463.8 100.522 464.016L100.514 464.089L86.1929 540.7L86.8938 540.913C87.2423 541.015 87.6265 541.125 88.0451 541.24C89.8414 541.733 91.8972 542.227 94.1787 542.688C109.059 545.695 124.863 545.843 139.656 541.253C140.79 540.901 141.912 540.522 143.022 540.115L143.519 539.929L142.982 536.59C141.602 528.076 139.979 518.522 138.148 508.097L137.738 505.767C137.204 502.74 136.655 499.655 136.093 496.515C133.871 484.112 131.515 471.307 129.138 458.638L126.763 446.059L124.089 432.101C124.042 431.858 124.186 431.619 124.411 431.569Z" fill="black"/>
<path d="M112.522 433.024C112.728 433.037 112.892 433.209 112.914 433.425L112.915 433.498L109.273 507.705C109.261 507.953 109.065 508.144 108.836 508.131C108.629 508.119 108.466 507.946 108.444 507.731L108.442 507.658L112.084 433.45C112.096 433.202 112.292 433.012 112.522 433.024Z" fill="black"/>
<path d="M100.328 421.733C100.4 421.497 100.635 421.368 100.854 421.446C101.05 421.515 101.166 421.728 101.135 421.942L101.119 422.013L87.3568 467.283C87.285 467.518 87.0498 467.647 86.8313 467.569C86.6346 467.5 86.5186 467.287 86.5497 467.073L86.5656 467.002L100.328 421.733Z" fill="black"/>
</g>
<path d="M203.073 472.407C227.985 496.95 241.493 520.847 243.332 539.667C245.171 558.491 235.35 572.389 213.254 576.771C191.155 581.153 161.014 575.169 130.135 561.921C99.2562 548.673 67.7032 528.188 42.7844 503.638C17.8729 479.095 4.36429 455.198 2.52548 436.378C0.686265 417.554 10.5071 403.656 32.6031 399.274C54.7024 394.892 84.8436 400.876 115.722 414.124C146.601 427.372 178.154 447.857 203.073 472.407Z" stroke="url(#paint2_linear_23_345)" stroke-width="1.29394"/>
<path d="M203.073 472.407C227.985 496.95 241.493 520.847 243.332 539.667C245.171 558.491 235.35 572.389 213.254 576.771C191.155 581.153 161.014 575.169 130.135 561.921C99.2562 548.673 67.7032 528.188 42.7844 503.638C17.8729 479.095 4.36429 455.198 2.52548 436.378C0.686265 417.554 10.5071 403.656 32.6031 399.274C54.7024 394.892 84.8436 400.876 115.722 414.124C146.601 427.372 178.154 447.857 203.073 472.407Z" stroke="url(#paint3_linear_23_345)" stroke-opacity="0.2" stroke-width="1.29394"/>
<path d="M203.396 475.956C228.455 502.058 242.195 528.03 244.238 548.938C246.281 569.85 236.634 585.798 214.694 591.743C192.75 597.689 162.694 592.489 131.829 579.247C100.962 566.004 69.3428 544.743 44.2743 518.632C19.2147 492.53 5.47457 466.558 3.4317 445.65C1.38852 424.739 11.0361 408.791 32.9754 402.846C54.9196 396.899 84.9758 402.099 115.841 415.342C146.707 428.584 178.327 449.845 203.396 475.956Z" stroke="url(#paint4_linear_23_345)" stroke-width="1.29394"/>
<path d="M192.798 476.142C214.442 496.997 226.199 517.192 227.743 532.988C229.286 548.785 220.618 560.219 201.332 563.515C182.045 566.811 155.803 561.34 128.965 549.826C102.127 538.311 74.7051 520.758 53.0597 499.902C31.4154 479.047 19.6585 458.852 18.1151 443.056C16.5716 427.259 25.2394 415.825 44.5261 412.529C63.8132 409.234 90.055 414.704 116.893 426.218C143.731 437.733 171.153 455.286 192.798 476.142Z" stroke="url(#paint5_linear_23_345)" stroke-width="0.258789"/>
<path d="M192.189 472.492C213.722 493.24 225.331 513.242 226.855 528.834C228.379 544.432 219.828 555.794 200.632 559.075C181.434 562.355 155.288 556.911 128.524 545.428C101.758 533.945 74.4397 516.451 52.9009 495.697C31.3677 474.949 19.7582 454.947 18.2347 439.355C16.7108 423.757 25.2616 412.395 44.4576 409.115C63.6551 405.834 89.801 411.278 116.566 422.761C143.331 434.244 170.65 451.738 192.189 472.492Z" stroke="url(#paint6_linear_23_345)" stroke-width="1.29394"/>
<defs>
<filter id="filter0_f_23_345" x="-164.622" y="0" width="697" height="968" filterUnits="userSpaceOnUse" color-interpolation-filters="sRGB">
<feFlood flood-opacity="0" result="BackgroundImageFix"/>
<feBlend mode="normal" in="SourceGraphic" in2="BackgroundImageFix" result="shape"/>
<feGaussianBlur stdDeviation="100" result="effect1_foregroundBlur_23_345"/>
</filter>
<linearGradient id="paint0_linear_23_345" x1="183.878" y1="200" x2="183.878" y2="768" gradientUnits="userSpaceOnUse">
<stop stop-color="#46ABE5"/>
<stop offset="0.4375" stop-color="#46ABE5" stop-opacity="0.791667"/>
<stop offset="1" stop-color="#46ABE5" stop-opacity="0"/>
</linearGradient>
<linearGradient id="paint1_linear_23_345" x1="149" y1="299" x2="245.477" y2="504.296" gradientUnits="userSpaceOnUse">
<stop stop-color="#6099DD" stop-opacity="0.86"/>
<stop offset="0.0001" stop-color="#C991D7" stop-opacity="0.73"/>
<stop offset="0.464218" stop-color="#B153C0" stop-opacity="0.770462"/>
<stop offset="1" stop-color="#1F5492" stop-opacity="0.86"/>
</linearGradient>
<linearGradient id="paint2_linear_23_345" x1="134.139" y1="602.762" x2="181.564" y2="492.222" gradientUnits="userSpaceOnUse">
<stop stop-color="white" stop-opacity="0.6"/>
<stop offset="0.34375" stop-color="#8FBCFF" stop-opacity="0.6"/>
<stop offset="1" stop-color="#8FBCFF" stop-opacity="0"/>
</linearGradient>
<linearGradient id="paint3_linear_23_345" x1="63.4117" y1="521.268" x2="82.4961" y2="499.397" gradientUnits="userSpaceOnUse">
<stop stop-color="#FF48D7"/>
<stop offset="0.234164" stop-color="white" stop-opacity="0.765836"/>
<stop offset="1" stop-color="#FF48D7" stop-opacity="0"/>
</linearGradient>
<linearGradient id="paint4_linear_23_345" x1="132.6" y1="587.007" x2="166.935" y2="506.979" gradientUnits="userSpaceOnUse">
<stop stop-color="#8FBCFF" stop-opacity="0.6"/>
<stop offset="1" stop-color="#8FBCFF" stop-opacity="0"/>
</linearGradient>
<linearGradient id="paint5_linear_23_345" x1="129.505" y1="555.325" x2="174.365" y2="450.764" gradientUnits="userSpaceOnUse">
<stop stop-color="#8FBCFF" stop-opacity="0.6"/>
<stop offset="1" stop-color="#8FBCFF" stop-opacity="0"/>
</linearGradient>
<linearGradient id="paint6_linear_23_345" x1="131.503" y1="575.779" x2="166.101" y2="495.136" gradientUnits="userSpaceOnUse">
<stop stop-color="#EDEDED" stop-opacity="0.6"/>
<stop offset="1" stop-color="#8FBCFF" stop-opacity="0"/>
</linearGradient>
<clipPath id="clip0_23_345">
<path d="M56 250L306.145 250.529L305.788 419.397C305.642 488.473 249.526 544.351 180.451 544.205C111.375 544.059 55.4968 487.944 55.6429 418.868L56 250Z" fill="white"/>
</clipPath>
</defs>
</svg>
