<svg width="360" height="646" viewBox="0 0 360 646" fill="none" xmlns="http://www.w3.org/2000/svg">
<g filter="url(#filter0_f_23_194)">
<ellipse cx="441" cy="568.5" rx="323" ry="241.5" fill="url(#paint0_linear_23_194)" fill-opacity="0.99"/>
</g>
<path d="M315.299 368.808C373.666 419.275 376.227 512.128 320.809 576.222C265.391 640.316 173.141 651.192 114.774 600.725C56.4069 550.258 53.8459 457.405 109.264 393.311C164.682 329.218 256.932 318.342 315.299 368.808Z" stroke="url(#paint1_linear_23_194)" stroke-width="1.55273"/>
<path d="M315.992 437.272C351.112 467.639 353.321 522.81 320.717 560.517C288.113 598.225 233.203 604.008 198.082 573.641C162.961 543.274 160.752 488.104 193.356 450.396C225.96 412.688 280.871 406.905 315.992 437.272Z" fill="url(#paint2_radial_23_194)" stroke="url(#paint3_linear_23_194)" stroke-width="2.07031"/>
<ellipse cx="283.773" cy="523.602" rx="46.8851" ry="42.7873" transform="rotate(-49.1519 283.773 523.602)" fill="url(#paint4_radial_23_194)" fill-opacity="0.6"/>
<g filter="url(#filter1_d_23_194)">
<path fill-rule="evenodd" clip-rule="evenodd" d="M316.14 551.588C337.614 526.751 337.433 491.408 315.734 472.646C294.036 453.885 259.037 458.81 237.562 483.646C216.087 508.483 216.269 543.826 237.967 562.588C259.666 581.349 294.665 576.424 316.14 551.588ZM316.139 551.587C333.075 532 332.314 503.592 314.438 488.136C296.563 472.68 268.343 476.029 251.407 495.617C234.471 515.204 235.232 543.612 253.107 559.068C270.983 574.524 299.203 571.175 316.139 551.587Z" fill="url(#paint5_radial_23_194)" fill-opacity="0.6" shape-rendering="crispEdges"/>
</g>
<g filter="url(#filter2_d_23_194)">
<path fill-rule="evenodd" clip-rule="evenodd" d="M319.642 554.616C350.317 519.139 348.938 467.687 316.562 439.693C284.186 411.7 233.073 417.766 202.399 453.242C171.724 488.719 173.104 540.172 205.479 568.165C237.855 596.159 288.968 590.093 319.642 554.616ZM316.139 551.587C337.614 526.751 337.432 491.408 315.734 472.646C294.035 453.884 259.036 458.809 237.562 483.646C216.087 508.482 216.268 543.826 237.967 562.587C259.665 581.349 294.664 576.424 316.139 551.587Z" fill="url(#paint6_radial_23_194)" shape-rendering="crispEdges"/>
</g>
<path fill-rule="evenodd" clip-rule="evenodd" d="M314.728 550.022C328.437 533.972 327.758 510.821 313.164 498.203C298.509 485.532 275.374 488.278 261.49 504.335C247.606 520.393 248.23 543.682 262.885 556.353C277.48 568.972 300.488 566.299 314.39 550.413C303.4 562.931 285.245 565.028 273.724 555.066C262.143 545.053 261.65 526.649 272.622 513.96C283.594 501.27 301.876 499.1 313.456 509.113C324.977 519.074 325.525 537.34 314.728 550.022Z" fill="url(#paint7_radial_23_194)"/>
<path d="M315.089 466.547C339.288 487.471 340.381 526.007 317.355 552.638C294.329 579.268 256.038 583.752 231.839 562.829C207.64 541.906 206.547 503.369 229.573 476.738C252.599 450.108 290.89 445.624 315.089 466.547Z" stroke="url(#paint8_linear_23_194)" stroke-width="1.29394"/>
<rect width="0.862098" height="0.862098" transform="matrix(0.986935 0.161119 0.301966 0.953319 224.084 569.55)" fill="#00FFF0"/>
<rect width="1.74336" height="1.74336" transform="matrix(0.98694 0.161089 0.301937 0.953328 244.19 577.962)" fill="#00FFF0"/>
<rect width="0.810164" height="0.810164" transform="matrix(-0.98694 -0.161089 0.301937 0.953328 260.767 561.061)" fill="#00FFF0"/>
<rect width="0.862084" height="0.862084" transform="matrix(0.98694 0.161089 0.301937 0.953328 268.279 580.666)" fill="#00FFF0"/>
<rect width="0.862071" height="0.862071" transform="matrix(0.986945 0.161058 0.301907 0.953337 213.012 578.588)" fill="#00FFF0"/>
<rect width="0.862071" height="0.862071" transform="matrix(0.986945 0.161058 0.301907 0.953337 188.763 553.112)" fill="#00FFF0" fill-opacity="0.5"/>
<rect width="0.602509" height="0.602509" transform="matrix(0.98694 0.161089 0.301937 0.953328 210.607 559.092)" fill="#00FFF0" fill-opacity="0.5"/>
<rect width="1.12409" height="1.12409" transform="matrix(0.98694 0.161089 0.301937 0.953328 204.301 560.835)" fill="#00FFF0" fill-opacity="0.5"/>
<ellipse cx="290.464" cy="515.896" rx="40.7008" ry="66.2152" transform="rotate(-49.1519 290.464 515.896)" fill="url(#paint9_radial_23_194)" fill-opacity="0.5"/>
<ellipse cx="290.448" cy="515.882" rx="60.288" ry="98.0812" transform="rotate(-49.1519 290.448 515.882)" fill="url(#paint10_radial_23_194)" fill-opacity="0.6"/>
<g filter="url(#filter3_d_23_194)">
<ellipse cx="313.528" cy="535.838" rx="32.0817" ry="32.6975" transform="rotate(-49.1519 313.528 535.838)" fill="url(#paint11_linear_23_194)" fill-opacity="0.5" shape-rendering="crispEdges"/>
<path d="M334.172 511.961C347.623 523.592 349.266 543.706 337.87 556.885C326.474 570.065 306.334 571.345 292.883 559.714C279.432 548.084 277.789 527.97 289.185 514.79C300.581 501.611 320.721 500.331 334.172 511.961Z" stroke="url(#paint12_linear_23_194)" stroke-opacity="0.6" stroke-width="1.03515" shape-rendering="crispEdges"/>
</g>
<ellipse cx="290.464" cy="515.897" rx="40.7008" ry="66.2152" transform="rotate(-49.1519 290.464 515.897)" fill="url(#paint13_radial_23_194)"/>
<g filter="url(#filter4_d_23_194)">
<ellipse cx="298.746" cy="523.057" rx="39.7918" ry="37.8721" transform="rotate(-49.1519 298.746 523.057)" fill="url(#paint14_linear_23_194)" fill-opacity="0.5" shape-rendering="crispEdges"/>
</g>
<g filter="url(#filter5_d_23_194)">
<ellipse cx="280.96" cy="507.679" rx="39.3871" ry="36.9963" transform="rotate(-49.1519 280.96 507.679)" fill="url(#paint15_linear_23_194)" fill-opacity="0.5" shape-rendering="crispEdges"/>
<path d="M306.383 478.276C321.6 491.433 322.615 515.276 308.554 531.538C294.493 547.8 270.754 550.239 255.537 537.081C240.32 523.924 239.305 500.082 253.366 483.82C267.427 467.558 291.166 465.119 306.383 478.276Z" stroke="url(#paint16_linear_23_194)" stroke-opacity="0.6" stroke-width="1.03515" shape-rendering="crispEdges"/>
</g>
<g filter="url(#filter6_d_23_194)">
<ellipse cx="258.064" cy="487.882" rx="19.0233" ry="20.9764" transform="rotate(-49.1519 258.064 487.882)" fill="url(#paint17_linear_23_194)" fill-opacity="0.5" shape-rendering="crispEdges"/>
</g>
<ellipse cx="290.464" cy="515.896" rx="30.1479" ry="49.0469" transform="rotate(-49.1519 290.464 515.896)" fill="url(#paint18_radial_23_194)"/>
<g filter="url(#filter7_d_23_194)">
<path d="M286.16 472.456C299.389 483.894 301.266 503.332 290.428 515.866C279.591 528.4 260.086 529.35 246.856 517.912C233.627 506.473 231.75 487.035 242.588 474.501C253.425 461.967 272.93 461.017 286.16 472.456Z" stroke="url(#paint19_linear_23_194)" stroke-opacity="0.6" stroke-width="1.03515" shape-rendering="crispEdges"/>
</g>
<g filter="url(#filter8_d_23_194)">
<path d="M306.383 478.276C321.6 491.433 322.615 515.276 308.554 531.538C294.493 547.8 270.754 550.239 255.537 537.081C240.32 523.924 239.305 500.082 253.366 483.82C267.427 467.558 291.166 465.119 306.383 478.276Z" stroke="url(#paint20_linear_23_194)" stroke-opacity="0.6" stroke-width="1.03515" shape-rendering="crispEdges"/>
</g>
<g filter="url(#filter9_d_23_194)">
<path d="M324.433 493.348C340.021 506.826 341.205 531.063 327.003 547.489C312.8 563.915 288.646 566.244 273.058 552.766C257.471 539.288 256.286 515.052 270.489 498.625C284.692 482.199 308.846 479.871 324.433 493.348Z" stroke="url(#paint21_linear_23_194)" stroke-opacity="0.6" stroke-width="1.03515" shape-rendering="crispEdges"/>
</g>
<g filter="url(#filter10_d_23_194)">
<path d="M270.168 473.883C278.752 481.305 280.195 493.567 273.54 501.263C266.886 508.959 254.545 509.302 245.961 501.88C237.377 494.458 235.934 482.197 242.588 474.501C249.243 466.804 261.584 466.461 270.168 473.883Z" stroke="url(#paint22_linear_23_194)" stroke-opacity="0.6" stroke-width="1.03515" shape-rendering="crispEdges"/>
</g>
<ellipse cx="216.354" cy="536.158" rx="23.0983" ry="37.5781" transform="rotate(-49.1519 216.354 536.158)" fill="url(#paint23_radial_23_194)" fill-opacity="0.6"/>
<g filter="url(#filter11_d_23_194)">
<ellipse cx="222.387" cy="545.129" rx="14.5141" ry="14.7927" transform="rotate(-49.1519 222.387 545.129)" fill="url(#paint24_linear_23_194)" fill-opacity="0.5" shape-rendering="crispEdges"/>
<path d="M231.542 534.541C237.513 539.704 238.235 548.625 233.186 554.466C228.136 560.306 219.203 560.879 213.233 555.717C207.262 550.554 206.539 541.633 211.589 535.792C216.639 529.952 225.571 529.379 231.542 534.541Z" stroke="url(#paint25_linear_23_194)" stroke-opacity="0.6" stroke-width="1.03515" shape-rendering="crispEdges"/>
</g>
<ellipse cx="211.953" cy="536.107" rx="18.4135" ry="29.9565" transform="rotate(-49.1519 211.953 536.107)" fill="url(#paint26_radial_23_194)"/>
<g filter="url(#filter12_d_23_194)">
<ellipse cx="215.7" cy="539.347" rx="18.0023" ry="17.1337" transform="rotate(-49.1519 215.7 539.347)" fill="url(#paint27_linear_23_194)" fill-opacity="0.5" shape-rendering="crispEdges"/>
<path d="M227.136 526.12C234.059 532.107 234.601 542.891 228.269 550.214C221.937 557.538 211.187 558.559 204.264 552.573C197.34 546.586 196.798 535.802 203.13 528.479C209.462 521.156 220.212 520.134 227.136 526.12Z" stroke="url(#paint28_linear_23_194)" stroke-opacity="0.6" stroke-width="1.03515" shape-rendering="crispEdges"/>
</g>
<ellipse cx="211.953" cy="536.107" rx="13.6392" ry="22.1894" transform="rotate(-49.1519 211.953 536.107)" fill="url(#paint29_radial_23_194)"/>
<ellipse cx="211.953" cy="536.107" rx="13.6392" ry="22.1894" transform="rotate(-49.1519 211.953 536.107)" fill="url(#paint30_radial_23_194)"/>
<g filter="url(#filter13_d_23_194)">
<ellipse cx="207.654" cy="532.389" rx="17.8191" ry="16.7375" transform="rotate(-49.1519 207.654 532.389)" fill="url(#paint31_linear_23_194)" fill-opacity="0.5" shape-rendering="crispEdges"/>
<path d="M218.97 519.301C225.723 525.141 226.193 535.746 219.923 542.998C213.653 550.249 203.091 551.316 196.337 545.477C189.584 539.637 189.114 529.032 195.384 521.78C201.654 514.529 212.216 513.462 218.97 519.301Z" stroke="url(#paint32_linear_23_194)" stroke-opacity="0.6" stroke-width="1.03515" shape-rendering="crispEdges"/>
</g>
<g filter="url(#filter14_d_23_194)">
<ellipse cx="201.115" cy="526.737" rx="13.8271" ry="14.5402" transform="rotate(-49.1519 201.115 526.737)" fill="url(#paint33_linear_23_194)" fill-opacity="0.5" shape-rendering="crispEdges"/>
<path d="M209.821 516.669C215.698 521.75 216.515 530.366 211.723 535.908C206.931 541.45 198.287 541.886 192.41 536.805C186.533 531.723 185.716 523.107 190.508 517.565C195.3 512.023 203.943 511.587 209.821 516.669Z" stroke="url(#paint34_linear_23_194)" stroke-opacity="0.6" stroke-width="1.03515" shape-rendering="crispEdges"/>
</g>
<g filter="url(#filter15_d_23_194)">
<ellipse cx="197.295" cy="523.433" rx="8.60636" ry="9.48995" transform="rotate(-49.1519 197.295 523.433)" fill="url(#paint35_linear_23_194)" fill-opacity="0.5" shape-rendering="crispEdges"/>
<path d="M202.586 517.314C206.371 520.587 206.974 525.957 204.082 529.301C201.191 532.646 195.79 532.825 192.005 529.552C188.22 526.279 187.617 520.909 190.508 517.565C193.4 514.22 198.801 514.041 202.586 517.314Z" stroke="url(#paint36_linear_23_194)" stroke-opacity="0.6" stroke-width="1.03515" shape-rendering="crispEdges"/>
</g>
<ellipse cx="211.953" cy="536.107" rx="18.4135" ry="29.9565" transform="rotate(-49.1519 211.953 536.107)" fill="url(#paint37_radial_23_194)" fill-opacity="0.9"/>
<rect width="1.02143" height="1.02143" transform="matrix(0.98694 0.161089 0.301937 0.953328 100.544 502)" fill="#0066FF" fill-opacity="0.5"/>
<rect width="2.06291" height="2.06291" transform="matrix(0.98694 0.161089 0.301937 0.953328 124.336 511.954)" fill="#0066FF" fill-opacity="0.5"/>
<rect width="0.959902" height="0.959902" transform="matrix(-0.986944 -0.161061 0.30191 0.953336 143.951 491.955)" fill="#0066FF" fill-opacity="0.5"/>
<rect width="1.02143" height="1.02143" transform="matrix(0.98694 0.161089 0.301937 0.953328 152.84 515.153)" fill="#0066FF" fill-opacity="0.5"/>
<rect width="1.02143" height="1.02143" transform="matrix(0.98694 0.161089 0.301937 0.953328 87.4424 512.694)" fill="#0066FF" fill-opacity="0.5"/>
<rect width="1.02143" height="1.02143" transform="matrix(0.98694 0.161089 0.301937 0.953328 58.748 482.549)" fill="#0500FF" fill-opacity="0.5"/>
<rect width="0.71296" height="0.71296" transform="matrix(0.986934 0.161125 0.301972 0.953317 84.5963 489.625)" fill="#0500FF" fill-opacity="0.5"/>
<rect width="1.33013" height="1.33013" transform="matrix(0.98694 0.161089 0.301937 0.953328 77.1349 491.687)" fill="#0500FF" fill-opacity="0.5"/>
<rect width="1.42019" height="1.42019" transform="matrix(0.98694 0.161089 0.301937 0.953328 179.444 625.752)" fill="#0066FF" fill-opacity="0.5"/>
<rect width="2.86824" height="2.86823" transform="matrix(0.986941 0.16108 0.301928 0.953331 212.524 639.592)" fill="#0066FF" fill-opacity="0.5"/>
<rect width="1.33466" height="1.33466" transform="matrix(-0.98694 -0.161089 0.301937 0.953328 239.796 611.786)" fill="#0066FF" fill-opacity="0.5"/>
<rect width="1.42018" height="1.42018" transform="matrix(0.986943 0.16107 0.301919 0.953334 252.156 644.041)" fill="#0066FF" fill-opacity="0.5"/>
<rect width="1.42018" height="1.42018" transform="matrix(0.986943 0.16107 0.301919 0.953334 161.227 640.622)" fill="#0066FF" fill-opacity="0.5"/>
<rect width="1.42019" height="1.42019" transform="matrix(0.98694 0.161089 0.301937 0.953328 121.331 598.708)" fill="#0500FF" fill-opacity="0.5"/>
<rect width="0.992568" height="0.992568" transform="matrix(0.98694 0.161089 0.301937 0.953328 157.271 608.546)" fill="#0500FF" fill-opacity="0.5"/>
<rect width="1.84939" height="1.84939" transform="matrix(0.986942 0.161075 0.301923 0.953332 146.896 611.414)" fill="#0500FF" fill-opacity="0.5"/>
<rect width="1.21553" height="1.21553" transform="matrix(-0.0883059 -0.898367 1.02831 0.357382 257.929 391.196)" fill="#0066FF" fill-opacity="0.5"/>
<rect width="2.45492" height="2.45492" transform="matrix(-0.0883057 -0.898367 1.02831 0.357382 263.83 370.477)" fill="#0066FF" fill-opacity="0.5"/>
<rect width="1.14233" height="1.14233" transform="matrix(0.0883057 0.898367 1.02831 0.357382 229.513 329.922)" fill="#0066FF" fill-opacity="0.5"/>
<rect width="1.21551" height="1.21551" transform="matrix(-0.0882603 -0.898367 1.02832 0.357347 258.776 338.391)" fill="#0066FF" fill-opacity="0.5"/>
<rect width="1.21553" height="1.21553" transform="matrix(-0.0883057 -0.898367 1.02831 0.357382 277.153 416.069)" fill="#0066FF" fill-opacity="0.5"/>
<rect width="1.21553" height="1.21553" transform="matrix(-0.0883057 -0.898367 1.02831 0.357382 244.838 425.962)" fill="#0500FF" fill-opacity="0.5"/>
<rect width="0.848439" height="0.848439" transform="matrix(-0.0883383 -0.898366 1.0283 0.357406 246.053 400.339)" fill="#0500FF" fill-opacity="0.5"/>
<rect width="1.58288" height="1.58288" transform="matrix(-0.0882884 -0.898367 1.02831 0.357368 251.404 411.152)" fill="#0500FF" fill-opacity="0.5"/>
<rect width="2.45492" height="2.45492" transform="matrix(0.630861 -0.419568 0.816842 0.871061 190.521 398.714)" fill="#0066FF" fill-opacity="0.5"/>
<rect width="1.14233" height="1.14233" transform="matrix(-0.630861 0.419568 0.816842 0.871061 186.39 358.269)" fill="#0066FF" fill-opacity="0.5"/>
<rect width="1.21553" height="1.21553" transform="matrix(0.630861 -0.419568 0.816842 0.871061 211.011 382.382)" fill="#0066FF" fill-opacity="0.5"/>
<rect width="1.21553" height="1.21553" transform="matrix(0.630861 -0.419568 0.816842 0.871061 168.011 426.275)" fill="#0066FF" fill-opacity="0.5"/>
<rect width="1.21553" height="1.21553" transform="matrix(0.630861 -0.419568 0.816842 0.871061 125.275 407.296)" fill="#0500FF" fill-opacity="0.5"/>
<rect width="0.848428" height="0.848428" transform="matrix(0.630849 -0.41958 0.816832 0.871066 147.283 397.976)" fill="#0500FF" fill-opacity="0.5"/>
<rect width="1.58289" height="1.5829" transform="matrix(0.630861 -0.419568 0.816842 0.871061 144.301 406.066)" fill="#0500FF" fill-opacity="0.5"/>
<defs>
<filter id="filter0_f_23_194" x="-82" y="127" width="1046" height="883" filterUnits="userSpaceOnUse" color-interpolation-filters="sRGB">
<feFlood flood-opacity="0" result="BackgroundImageFix"/>
<feBlend mode="normal" in="SourceGraphic" in2="BackgroundImageFix" result="shape"/>
<feGaussianBlur stdDeviation="100" result="effect1_foregroundBlur_23_194"/>
</filter>
<filter id="filter1_d_23_194" x="218.986" y="453.491" width="126.081" height="128.252" filterUnits="userSpaceOnUse" color-interpolation-filters="sRGB">
<feFlood flood-opacity="0" result="BackgroundImageFix"/>
<feColorMatrix in="SourceAlpha" type="matrix" values="0 0 0 0 0 0 0 0 0 0 0 0 0 0 0 0 0 0 127 0" result="hardAlpha"/>
<feOffset dx="5.17577"/>
<feGaussianBlur stdDeviation="3.88183"/>
<feComposite in2="hardAlpha" operator="out"/>
<feColorMatrix type="matrix" values="0 0 0 0 0.119531 0 0 0 0 0.163828 0 0 0 0 0.5625 0 0 0 0.1 0"/>
<feBlend mode="normal" in2="BackgroundImageFix" result="effect1_dropShadow_23_194"/>
<feBlend mode="normal" in="SourceGraphic" in2="effect1_dropShadow_23_194" result="shape"/>
</filter>
<filter id="filter2_d_23_194" x="177.678" y="413.819" width="177.037" height="179.185" filterUnits="userSpaceOnUse" color-interpolation-filters="sRGB">
<feFlood flood-opacity="0" result="BackgroundImageFix"/>
<feColorMatrix in="SourceAlpha" type="matrix" values="0 0 0 0 0 0 0 0 0 0 0 0 0 0 0 0 0 0 127 0" result="hardAlpha"/>
<feOffset dx="5.17577" dy="-0.517577"/>
<feGaussianBlur stdDeviation="3.88183"/>
<feComposite in2="hardAlpha" operator="out"/>
<feColorMatrix type="matrix" values="0 0 0 0 0.119531 0 0 0 0 0.163828 0 0 0 0 0.5625 0 0 0 0.1 0"/>
<feBlend mode="normal" in2="BackgroundImageFix" result="effect1_dropShadow_23_194"/>
<feBlend mode="normal" in="SourceGraphic" in2="effect1_dropShadow_23_194" result="shape"/>
</filter>
<filter id="filter3_d_23_194" x="274.363" y="496.762" width="80.3996" height="80.2213" filterUnits="userSpaceOnUse" color-interpolation-filters="sRGB">
<feFlood flood-opacity="0" result="BackgroundImageFix"/>
<feColorMatrix in="SourceAlpha" type="matrix" values="0 0 0 0 0 0 0 0 0 0 0 0 0 0 0 0 0 0 127 0" result="hardAlpha"/>
<feOffset dx="1.03515" dy="1.03515"/>
<feGaussianBlur stdDeviation="3.88183"/>
<feComposite in2="hardAlpha" operator="out"/>
<feColorMatrix type="matrix" values="0 0 0 0 0.440043 0 0 0 0 0.20092 0 0 0 0 0.679167 0 0 0 0.2 0"/>
<feBlend mode="normal" in2="BackgroundImageFix" result="effect1_dropShadow_23_194"/>
<feBlend mode="normal" in="SourceGraphic" in2="effect1_dropShadow_23_194" result="shape"/>
</filter>
<filter id="filter4_d_23_194" x="253.312" y="477.345" width="92.9378" height="93.4939" filterUnits="userSpaceOnUse" color-interpolation-filters="sRGB">
<feFlood flood-opacity="0" result="BackgroundImageFix"/>
<feColorMatrix in="SourceAlpha" type="matrix" values="0 0 0 0 0 0 0 0 0 0 0 0 0 0 0 0 0 0 127 0" result="hardAlpha"/>
<feOffset dx="1.03515" dy="1.03515"/>
<feGaussianBlur stdDeviation="3.88183"/>
<feComposite in2="hardAlpha" operator="out"/>
<feColorMatrix type="matrix" values="0 0 0 0 0.440043 0 0 0 0 0.20092 0 0 0 0 0.679167 0 0 0 0.2 0"/>
<feBlend mode="normal" in2="BackgroundImageFix" result="effect1_dropShadow_23_194"/>
<feBlend mode="normal" in="SourceGraphic" in2="effect1_dropShadow_23_194" result="shape"/>
</filter>
<filter id="filter5_d_23_194" x="236.194" y="462.566" width="91.6026" height="92.2949" filterUnits="userSpaceOnUse" color-interpolation-filters="sRGB">
<feFlood flood-opacity="0" result="BackgroundImageFix"/>
<feColorMatrix in="SourceAlpha" type="matrix" values="0 0 0 0 0 0 0 0 0 0 0 0 0 0 0 0 0 0 127 0" result="hardAlpha"/>
<feOffset dx="1.03515" dy="1.03515"/>
<feGaussianBlur stdDeviation="3.88183"/>
<feComposite in2="hardAlpha" operator="out"/>
<feColorMatrix type="matrix" values="0 0 0 0 0.440043 0 0 0 0 0.20092 0 0 0 0 0.679167 0 0 0 0.2 0"/>
<feBlend mode="normal" in2="BackgroundImageFix" result="effect1_dropShadow_23_194"/>
<feBlend mode="normal" in="SourceGraphic" in2="effect1_dropShadow_23_194" result="shape"/>
</filter>
<filter id="filter6_d_23_194" x="231.171" y="461.271" width="55.8572" height="55.2921" filterUnits="userSpaceOnUse" color-interpolation-filters="sRGB">
<feFlood flood-opacity="0" result="BackgroundImageFix"/>
<feColorMatrix in="SourceAlpha" type="matrix" values="0 0 0 0 0 0 0 0 0 0 0 0 0 0 0 0 0 0 127 0" result="hardAlpha"/>
<feOffset dx="1.03515" dy="1.03515"/>
<feGaussianBlur stdDeviation="3.88183"/>
<feComposite in2="hardAlpha" operator="out"/>
<feColorMatrix type="matrix" values="0 0 0 0 0.440043 0 0 0 0 0.20092 0 0 0 0 0.679167 0 0 0 0.2 0"/>
<feBlend mode="normal" in2="BackgroundImageFix" result="effect1_dropShadow_23_194"/>
<feBlend mode="normal" in="SourceGraphic" in2="effect1_dropShadow_23_194" result="shape"/>
</filter>
<filter id="filter7_d_23_194" x="228.304" y="457.208" width="78.4789" height="78.0223" filterUnits="userSpaceOnUse" color-interpolation-filters="sRGB">
<feFlood flood-opacity="0" result="BackgroundImageFix"/>
<feColorMatrix in="SourceAlpha" type="matrix" values="0 0 0 0 0 0 0 0 0 0 0 0 0 0 0 0 0 0 127 0" result="hardAlpha"/>
<feOffset dx="1.03515" dy="1.03515"/>
<feGaussianBlur stdDeviation="3.88183"/>
<feComposite in2="hardAlpha" operator="out"/>
<feColorMatrix type="matrix" values="0 0 0 0 0.440043 0 0 0 0 0.20092 0 0 0 0 0.679167 0 0 0 0.2 0"/>
<feBlend mode="normal" in2="BackgroundImageFix" result="effect1_dropShadow_23_194"/>
<feBlend mode="normal" in="SourceGraphic" in2="effect1_dropShadow_23_194" result="shape"/>
</filter>
<filter id="filter8_d_23_194" x="236.194" y="462.566" width="91.6026" height="92.2949" filterUnits="userSpaceOnUse" color-interpolation-filters="sRGB">
<feFlood flood-opacity="0" result="BackgroundImageFix"/>
<feColorMatrix in="SourceAlpha" type="matrix" values="0 0 0 0 0 0 0 0 0 0 0 0 0 0 0 0 0 0 127 0" result="hardAlpha"/>
<feOffset dx="1.03515" dy="1.03515"/>
<feGaussianBlur stdDeviation="3.88183"/>
<feComposite in2="hardAlpha" operator="out"/>
<feColorMatrix type="matrix" values="0 0 0 0 0.440043 0 0 0 0 0.20092 0 0 0 0 0.679167 0 0 0 0.2 0"/>
<feBlend mode="normal" in2="BackgroundImageFix" result="effect1_dropShadow_23_194"/>
<feBlend mode="normal" in="SourceGraphic" in2="effect1_dropShadow_23_194" result="shape"/>
</filter>
<filter id="filter9_d_23_194" x="253.312" y="477.345" width="92.9378" height="93.4939" filterUnits="userSpaceOnUse" color-interpolation-filters="sRGB">
<feFlood flood-opacity="0" result="BackgroundImageFix"/>
<feColorMatrix in="SourceAlpha" type="matrix" values="0 0 0 0 0 0 0 0 0 0 0 0 0 0 0 0 0 0 127 0" result="hardAlpha"/>
<feOffset dx="1.03515" dy="1.03515"/>
<feGaussianBlur stdDeviation="3.88183"/>
<feComposite in2="hardAlpha" operator="out"/>
<feColorMatrix type="matrix" values="0 0 0 0 0.440043 0 0 0 0 0.20092 0 0 0 0 0.679167 0 0 0 0.2 0"/>
<feBlend mode="normal" in2="BackgroundImageFix" result="effect1_dropShadow_23_194"/>
<feBlend mode="normal" in="SourceGraphic" in2="effect1_dropShadow_23_194" result="shape"/>
</filter>
<filter id="filter10_d_23_194" x="231.171" y="461.271" width="55.8572" height="55.2921" filterUnits="userSpaceOnUse" color-interpolation-filters="sRGB">
<feFlood flood-opacity="0" result="BackgroundImageFix"/>
<feColorMatrix in="SourceAlpha" type="matrix" values="0 0 0 0 0 0 0 0 0 0 0 0 0 0 0 0 0 0 127 0" result="hardAlpha"/>
<feOffset dx="1.03515" dy="1.03515"/>
<feGaussianBlur stdDeviation="3.88183"/>
<feComposite in2="hardAlpha" operator="out"/>
<feColorMatrix type="matrix" values="0 0 0 0 0.440043 0 0 0 0 0.20092 0 0 0 0 0.679167 0 0 0 0.2 0"/>
<feBlend mode="normal" in2="BackgroundImageFix" result="effect1_dropShadow_23_194"/>
<feBlend mode="normal" in="SourceGraphic" in2="effect1_dropShadow_23_194" result="shape"/>
</filter>
<filter id="filter11_d_23_194" x="200.984" y="523.766" width="44.8763" height="44.7956" filterUnits="userSpaceOnUse" color-interpolation-filters="sRGB">
<feFlood flood-opacity="0" result="BackgroundImageFix"/>
<feColorMatrix in="SourceAlpha" type="matrix" values="0 0 0 0 0 0 0 0 0 0 0 0 0 0 0 0 0 0 127 0" result="hardAlpha"/>
<feOffset dx="1.03515" dy="1.03515"/>
<feGaussianBlur stdDeviation="3.88183"/>
<feComposite in2="hardAlpha" operator="out"/>
<feColorMatrix type="matrix" values="0 0 0 0 0.440043 0 0 0 0 0.20092 0 0 0 0 0.679167 0 0 0 0.2 0"/>
<feBlend mode="normal" in2="BackgroundImageFix" result="effect1_dropShadow_23_194"/>
<feBlend mode="normal" in="SourceGraphic" in2="effect1_dropShadow_23_194" result="shape"/>
</filter>
<filter id="filter12_d_23_194" x="191.46" y="514.982" width="50.5487" height="50.8002" filterUnits="userSpaceOnUse" color-interpolation-filters="sRGB">
<feFlood flood-opacity="0" result="BackgroundImageFix"/>
<feColorMatrix in="SourceAlpha" type="matrix" values="0 0 0 0 0 0 0 0 0 0 0 0 0 0 0 0 0 0 127 0" result="hardAlpha"/>
<feOffset dx="1.03515" dy="1.03515"/>
<feGaussianBlur stdDeviation="3.88183"/>
<feComposite in2="hardAlpha" operator="out"/>
<feColorMatrix type="matrix" values="0 0 0 0 0.440043 0 0 0 0 0.20092 0 0 0 0 0.679167 0 0 0 0.2 0"/>
<feBlend mode="normal" in2="BackgroundImageFix" result="effect1_dropShadow_23_194"/>
<feBlend mode="normal" in="SourceGraphic" in2="effect1_dropShadow_23_194" result="shape"/>
</filter>
<filter id="filter13_d_23_194" x="183.716" y="508.295" width="49.9447" height="50.2578" filterUnits="userSpaceOnUse" color-interpolation-filters="sRGB">
<feFlood flood-opacity="0" result="BackgroundImageFix"/>
<feColorMatrix in="SourceAlpha" type="matrix" values="0 0 0 0 0 0 0 0 0 0 0 0 0 0 0 0 0 0 127 0" result="hardAlpha"/>
<feOffset dx="1.03515" dy="1.03515"/>
<feGaussianBlur stdDeviation="3.88183"/>
<feComposite in2="hardAlpha" operator="out"/>
<feColorMatrix type="matrix" values="0 0 0 0 0.440043 0 0 0 0 0.20092 0 0 0 0 0.679167 0 0 0 0.2 0"/>
<feBlend mode="normal" in2="BackgroundImageFix" result="effect1_dropShadow_23_194"/>
<feBlend mode="normal" in="SourceGraphic" in2="effect1_dropShadow_23_194" result="shape"/>
</filter>
<filter id="filter14_d_23_194" x="180.147" y="505.871" width="44.0073" height="43.8007" filterUnits="userSpaceOnUse" color-interpolation-filters="sRGB">
<feFlood flood-opacity="0" result="BackgroundImageFix"/>
<feColorMatrix in="SourceAlpha" type="matrix" values="0 0 0 0 0 0 0 0 0 0 0 0 0 0 0 0 0 0 127 0" result="hardAlpha"/>
<feOffset dx="1.03515" dy="1.03515"/>
<feGaussianBlur stdDeviation="3.88183"/>
<feComposite in2="hardAlpha" operator="out"/>
<feColorMatrix type="matrix" values="0 0 0 0 0.440043 0 0 0 0 0.20092 0 0 0 0 0.679167 0 0 0 0.2 0"/>
<feBlend mode="normal" in2="BackgroundImageFix" result="effect1_dropShadow_23_194"/>
<feBlend mode="normal" in="SourceGraphic" in2="effect1_dropShadow_23_194" result="shape"/>
</filter>
<filter id="filter15_d_23_194" x="181.444" y="507.71" width="33.773" height="33.5173" filterUnits="userSpaceOnUse" color-interpolation-filters="sRGB">
<feFlood flood-opacity="0" result="BackgroundImageFix"/>
<feColorMatrix in="SourceAlpha" type="matrix" values="0 0 0 0 0 0 0 0 0 0 0 0 0 0 0 0 0 0 127 0" result="hardAlpha"/>
<feOffset dx="1.03515" dy="1.03515"/>
<feGaussianBlur stdDeviation="3.88183"/>
<feComposite in2="hardAlpha" operator="out"/>
<feColorMatrix type="matrix" values="0 0 0 0 0.440043 0 0 0 0 0.20092 0 0 0 0 0.679167 0 0 0 0.2 0"/>
<feBlend mode="normal" in2="BackgroundImageFix" result="effect1_dropShadow_23_194"/>
<feBlend mode="normal" in="SourceGraphic" in2="effect1_dropShadow_23_194" result="shape"/>
</filter>
<linearGradient id="paint0_linear_23_194" x1="441" y1="327" x2="441" y2="810" gradientUnits="userSpaceOnUse">
<stop stop-color="#46ABE5"/>
<stop offset="0.4375" stop-color="#46ABE5" stop-opacity="0.791667"/>
<stop offset="1" stop-color="#46ABE5" stop-opacity="0"/>
</linearGradient>
<linearGradient id="paint1_linear_23_194" x1="358.058" y1="683.366" x2="198.393" y2="412.748" gradientUnits="userSpaceOnUse">
<stop stop-color="white"/>
<stop offset="0.508554" stop-color="#30FFFF"/>
<stop offset="1" stop-color="white" stop-opacity="0"/>
</linearGradient>
<radialGradient id="paint2_radial_23_194" cx="0" cy="0" r="1" gradientUnits="userSpaceOnUse" gradientTransform="translate(258.678 623.542) rotate(-108.182) scale(133.157 209.473)">
<stop stop-color="white"/>
<stop offset="0.462474" stop-color="#3A45AA"/>
<stop offset="1" stop-color="#3A45AA" stop-opacity="0"/>
</radialGradient>
<linearGradient id="paint3_linear_23_194" x1="288.644" y1="594.107" x2="278.543" y2="471.132" gradientUnits="userSpaceOnUse">
<stop stop-color="white"/>
<stop offset="0.442828" stop-color="#30FFFF"/>
<stop offset="1" stop-color="white" stop-opacity="0"/>
</linearGradient>
<radialGradient id="paint4_radial_23_194" cx="0" cy="0" r="1" gradientUnits="userSpaceOnUse" gradientTransform="translate(308.178 484.337) rotate(127.512) scale(87.4186 154.279)">
<stop offset="0.39201" stop-color="#1B29A4" stop-opacity="0"/>
<stop offset="0.841913" stop-color="#2938BB" stop-opacity="0.5"/>
<stop offset="1" stop-color="#172075" stop-opacity="0.5"/>
</radialGradient>
<radialGradient id="paint5_radial_23_194" cx="0" cy="0" r="1" gradientUnits="userSpaceOnUse" gradientTransform="translate(261.036 463.034) rotate(78.6134) scale(121.267 213.025)">
<stop offset="0.39201" stop-color="#6675FF" stop-opacity="0"/>
<stop offset="0.841913" stop-color="#6675FF" stop-opacity="0.5"/>
<stop offset="1" stop-color="#192059" stop-opacity="0"/>
</radialGradient>
<radialGradient id="paint6_radial_23_194" cx="0" cy="0" r="1" gradientUnits="userSpaceOnUse" gradientTransform="translate(236.135 423.979) rotate(77.4105) scale(178.082 309.165)">
<stop offset="0.39201" stop-color="#6675FF" stop-opacity="0"/>
<stop offset="0.841913" stop-color="#6675FF" stop-opacity="0.5"/>
<stop offset="1" stop-color="#DBDEFF" stop-opacity="0"/>
</radialGradient>
<radialGradient id="paint7_radial_23_194" cx="0" cy="0" r="1" gradientUnits="userSpaceOnUse" gradientTransform="translate(276.76 491.09) rotate(78.3602) scale(71.6653 126.478)">
<stop offset="0.39201" stop-color="#17217A" stop-opacity="0"/>
<stop offset="0.841913" stop-color="#1A2374" stop-opacity="0.5"/>
<stop offset="1" stop-color="#151E6C" stop-opacity="0.5"/>
</radialGradient>
<linearGradient id="paint8_linear_23_194" x1="294.719" y1="576.305" x2="259.949" y2="467.825" gradientUnits="userSpaceOnUse">
<stop stop-color="white"/>
<stop offset="0.508554" stop-color="#30FFFF"/>
<stop offset="1" stop-color="white" stop-opacity="0"/>
</linearGradient>
<radialGradient id="paint9_radial_23_194" cx="0" cy="0" r="1" gradientUnits="userSpaceOnUse" gradientTransform="translate(274.118 590.476) rotate(-73.3643) scale(139.523 97.3363)">
<stop offset="0.107416" stop-color="white" stop-opacity="0.5"/>
<stop offset="0.328407" stop-color="#8FB5FF" stop-opacity="0.5"/>
<stop offset="0.629496" stop-color="#220C7A" stop-opacity="0"/>
</radialGradient>
<radialGradient id="paint10_radial_23_194" cx="0" cy="0" r="1" gradientUnits="userSpaceOnUse" gradientTransform="translate(290.448 515.882) rotate(90) scale(98.0812 60.288)">
<stop stop-color="#3E5DFF"/>
<stop offset="1" stop-color="#3E5DFF" stop-opacity="0"/>
</radialGradient>
<linearGradient id="paint11_linear_23_194" x1="345.609" y1="528.761" x2="281.259" y2="531.615" gradientUnits="userSpaceOnUse">
<stop stop-color="#4E53BE" stop-opacity="0.5"/>
<stop offset="0.885417" stop-color="#33CEFF" stop-opacity="0.7"/>
<stop offset="1" stop-color="white" stop-opacity="0.5"/>
</linearGradient>
<linearGradient id="paint12_linear_23_194" x1="352.669" y1="562.268" x2="305.486" y2="507.661" gradientUnits="userSpaceOnUse">
<stop stop-color="#F9E5E5"/>
<stop offset="1" stop-color="white" stop-opacity="0"/>
</linearGradient>
<radialGradient id="paint13_radial_23_194" cx="0" cy="0" r="1" gradientUnits="userSpaceOnUse" gradientTransform="translate(249.764 539.984) rotate(-30.1714) scale(94.1574 129.109)">
<stop offset="0.249306" stop-color="white"/>
<stop offset="0.48315" stop-color="#8FF2FF" stop-opacity="0.5"/>
<stop offset="0.627037" stop-color="#220C7A" stop-opacity="0.1"/>
</radialGradient>
<linearGradient id="paint14_linear_23_194" x1="334.447" y1="520.867" x2="258.94" y2="522.341" gradientUnits="userSpaceOnUse">
<stop stop-color="#4E53BE" stop-opacity="0.1"/>
<stop offset="1" stop-color="#33CEFF"/>
</linearGradient>
<linearGradient id="paint15_linear_23_194" x1="310.825" y1="504.388" x2="241.535" y2="506.304" gradientUnits="userSpaceOnUse">
<stop stop-color="#4E53BE" stop-opacity="0.1"/>
<stop offset="0.997187" stop-color="#33CEFF"/>
</linearGradient>
<linearGradient id="paint16_linear_23_194" x1="325.6" y1="537.176" x2="271.437" y2="475.897" gradientUnits="userSpaceOnUse">
<stop stop-color="#F9E5E5"/>
<stop offset="1" stop-color="white" stop-opacity="0"/>
</linearGradient>
<linearGradient id="paint17_linear_23_194" x1="277.088" y1="483.341" x2="238.919" y2="484.907" gradientUnits="userSpaceOnUse">
<stop stop-color="#4E53BE" stop-opacity="0.1"/>
<stop offset="1" stop-color="#33CEFF" stop-opacity="0.9"/>
</linearGradient>
<radialGradient id="paint18_radial_23_194" cx="0" cy="0" r="1" gradientUnits="userSpaceOnUse" gradientTransform="translate(296.338 608.34) rotate(-85.8065) scale(141.871 87.9721)">
<stop offset="0.338542" stop-color="#68FFF6" stop-opacity="0.1"/>
<stop offset="0.802083" stop-color="#FFBFE9"/>
<stop offset="1" stop-color="white"/>
</radialGradient>
<linearGradient id="paint19_linear_23_194" x1="293.086" y1="513.583" x2="252.75" y2="471.598" gradientUnits="userSpaceOnUse">
<stop stop-color="white"/>
<stop offset="1" stop-color="white" stop-opacity="0"/>
</linearGradient>
<linearGradient id="paint20_linear_23_194" x1="310.96" y1="531.031" x2="267.64" y2="477.572" gradientUnits="userSpaceOnUse">
<stop stop-color="white"/>
<stop offset="1" stop-color="white" stop-opacity="0"/>
</linearGradient>
<linearGradient id="paint21_linear_23_194" x1="330.248" y1="546.462" x2="276.659" y2="497.378" gradientUnits="userSpaceOnUse">
<stop stop-color="white"/>
<stop offset="1" stop-color="white" stop-opacity="0"/>
</linearGradient>
<linearGradient id="paint22_linear_23_194" x1="282.996" y1="505.044" x2="253.193" y2="469.723" gradientUnits="userSpaceOnUse">
<stop stop-color="#F9E5E5"/>
<stop offset="1" stop-color="white" stop-opacity="0"/>
</linearGradient>
<radialGradient id="paint23_radial_23_194" cx="0" cy="0" r="1" gradientUnits="userSpaceOnUse" gradientTransform="translate(216.354 536.158) rotate(90) scale(37.5781 23.0983)">
<stop stop-color="#FF65C1"/>
<stop offset="1" stop-color="#FF65C1" stop-opacity="0"/>
</radialGradient>
<linearGradient id="paint24_linear_23_194" x1="236.901" y1="541.927" x2="207.788" y2="543.219" gradientUnits="userSpaceOnUse">
<stop stop-color="#4E53BE" stop-opacity="0.5"/>
<stop offset="0.885417" stop-color="#FB33FF" stop-opacity="0.5"/>
<stop offset="1" stop-color="white" stop-opacity="0.5"/>
</linearGradient>
<linearGradient id="paint25_linear_23_194" x1="240.095" y1="557.086" x2="218.749" y2="532.382" gradientUnits="userSpaceOnUse">
<stop stop-color="#F9E5E5"/>
<stop offset="1" stop-color="white" stop-opacity="0"/>
</linearGradient>
<radialGradient id="paint26_radial_23_194" cx="0" cy="0" r="1" gradientUnits="userSpaceOnUse" gradientTransform="translate(193.539 547.004) rotate(-30.1714) scale(42.5978 58.4102)">
<stop offset="0.249306" stop-color="white"/>
<stop offset="0.48315" stop-color="#FF8FED" stop-opacity="0.5"/>
<stop offset="0.627037" stop-color="#220C7A" stop-opacity="0.5"/>
</radialGradient>
<linearGradient id="paint27_linear_23_194" x1="233.702" y1="535.638" x2="197.603" y2="537.353" gradientUnits="userSpaceOnUse">
<stop stop-color="#4E53BE" stop-opacity="0.5"/>
<stop offset="0.885417" stop-color="#FB33FF" stop-opacity="0.5"/>
<stop offset="1" stop-color="white" stop-opacity="0.5"/>
</linearGradient>
<linearGradient id="paint28_linear_23_194" x1="236.346" y1="553.039" x2="211.318" y2="524.622" gradientUnits="userSpaceOnUse">
<stop stop-color="#F9E5E5"/>
<stop offset="1" stop-color="white" stop-opacity="0"/>
</linearGradient>
<radialGradient id="paint29_radial_23_194" cx="0" cy="0" r="1" gradientUnits="userSpaceOnUse" gradientTransform="translate(216.337 558.296) rotate(-101.13) scale(43.2647 28.2257)">
<stop offset="0.223958" stop-color="white"/>
<stop offset="0.466382" stop-color="#FFCEF1"/>
<stop offset="0.682292" stop-color="#B6B9FF"/>
<stop offset="0.881791" stop-color="white"/>
</radialGradient>
<radialGradient id="paint30_radial_23_194" cx="0" cy="0" r="1" gradientUnits="userSpaceOnUse" gradientTransform="translate(218.692 558.296) rotate(-96.422) scale(60.249 37.7965)">
<stop stop-color="white"/>
<stop offset="1" stop-color="white" stop-opacity="0"/>
</radialGradient>
<linearGradient id="paint31_linear_23_194" x1="225.473" y1="528.766" x2="189.743" y2="530.486" gradientUnits="userSpaceOnUse">
<stop stop-color="#4E53BE" stop-opacity="0.5"/>
<stop offset="0.885417" stop-color="#FB33FF" stop-opacity="0.5"/>
<stop offset="1" stop-color="white" stop-opacity="0.5"/>
</linearGradient>
<linearGradient id="paint32_linear_23_194" x1="227.849" y1="545.734" x2="203.345" y2="518.011" gradientUnits="userSpaceOnUse">
<stop stop-color="#F9E5E5"/>
<stop offset="1" stop-color="white" stop-opacity="0"/>
</linearGradient>
<linearGradient id="paint33_linear_23_194" x1="214.942" y1="523.589" x2="187.204" y2="524.782" gradientUnits="userSpaceOnUse">
<stop stop-color="#4E53BE" stop-opacity="0.5"/>
<stop offset="0.885417" stop-color="#FB33FF" stop-opacity="0.5"/>
<stop offset="1" stop-color="white" stop-opacity="0.5"/>
</linearGradient>
<linearGradient id="paint34_linear_23_194" x1="218.471" y1="538.548" x2="197.614" y2="514.186" gradientUnits="userSpaceOnUse">
<stop stop-color="#F9E5E5"/>
<stop offset="1" stop-color="white" stop-opacity="0"/>
</linearGradient>
<linearGradient id="paint35_linear_23_194" x1="205.902" y1="521.379" x2="188.634" y2="522.087" gradientUnits="userSpaceOnUse">
<stop stop-color="#4E53BE" stop-opacity="0.5"/>
<stop offset="0.885417" stop-color="#FB33FF" stop-opacity="0.5"/>
<stop offset="1" stop-color="white" stop-opacity="0.5"/>
</linearGradient>
<linearGradient id="paint36_linear_23_194" x1="208.575" y1="531.197" x2="195.091" y2="515.218" gradientUnits="userSpaceOnUse">
<stop stop-color="#F9E5E5"/>
<stop offset="1" stop-color="white" stop-opacity="0"/>
</linearGradient>
<radialGradient id="paint37_radial_23_194" cx="0" cy="0" r="1" gradientUnits="userSpaceOnUse" gradientTransform="translate(204.558 569.847) rotate(-74.1005) scale(89.1159 61.547)">
<stop offset="0.249306" stop-color="white"/>
<stop offset="0.48315" stop-color="#FF8FED" stop-opacity="0.5"/>
<stop offset="0.627037" stop-color="#220C7A" stop-opacity="0"/>
</radialGradient>
</defs>
</svg>
