<svg width="24" height="24" viewBox="0 0 25 25" xmlns="http://www.w3.org/2000/svg">

 <g>
  <title>Layer 1</title>
  <path stroke="null" id="svg_1" d="m11.1674,3.34969l5.2083,4.6875l0,8.13541l-2.0833,0l0,-6.24999l-6.25,0l0,6.24999l-2.08333,0l0,-8.13541l5.20833,-4.6875zm0,-2.80208l-10.41667,9.375l3.125,0l0,8.33329l6.24997,0l0,-6.25l2.0834,0l0,6.25l6.25,0l0,-8.33329l3.125,0l-10.4167,-9.375z"/>
  <path id="svg_2" d="m2.97834,9.43646l8.25,-7.33333l8.25,7.33333l-16.5,0z"/>
  <rect id="svg_3" height="8.83333" width="3.5" y="8.41667" x="5.66667" stroke="null"/>
  <rect id="svg_4" height="8.5" width="3" y="8.25" x="14.16667" stroke="null"/>
 </g>
</svg>