<svg width="24" height="24" viewBox="0 0 25 25" xmlns="http://www.w3.org/2000/svg" fill="none">

 <g>
  <title>Layer 1</title>
  <path id="svg_1" fill="currentColor" d="m9.16732,2.69773c1.20838,0 2.18748,0.97917 2.18748,2.1875c0,1.20834 -0.9791,2.1875 -2.18748,2.1875c-1.20834,0 -2.1875,-0.97916 -2.1875,-2.1875c0,-1.20833 0.97916,-2.1875 2.1875,-2.1875zm0,9.37497c3.09378,0 6.35418,1.5209 6.35418,2.1875l0,1.1459l-12.70835,0l0,-1.1459c0,-0.6666 3.26042,-2.1875 6.35417,-2.1875zm0,-11.35413c-2.30209,0 -4.16667,1.86458 -4.16667,4.16666c0,2.30209 1.86458,4.16667 4.16667,4.16667c2.30208,0 4.16668,-1.86458 4.16668,-4.16667c0,-2.30208 -1.8646,-4.16666 -4.16668,-4.16666zm0,9.37503c-2.78125,0 -8.33334,1.3958 -8.33334,4.1666l0,3.125l16.66672,0l0,-3.125c0,-2.7708 -5.5521,-4.1666 -8.33338,-4.1666z"/>
  <ellipse stroke="currentColor" rx="3.08332" id="svg_3" cy="4.66669" cx="9.25" />
  <ellipse stroke="currentColor" ry="2.16666" rx="7.41663" id="svg_4" cy="14.41664" cx="8.91666" />
 </g>
</svg>