<svg width="24" height="24" viewBox="0 0 25 25" xmlns="http://www.w3.org/2000/svg">
<path d="M2.55694 1.81641L3.17021 1.20314C3.56074 0.812615 4.1939 0.812615 4.58443 1.20314L7.17021 3.78893C7.56074 4.17945 7.56074 4.81262 7.17021 5.20314L5.3778 6.99555C5.07892 7.29443 5.00482 7.75104 5.19385 8.1291C6.28661 10.3146 8.05874 12.0867 10.2443 13.1795C10.6223 13.3685 11.0789 13.2944 11.3778 12.9956L13.1702 11.2031C13.5607 10.8126 14.1939 10.8126 14.5844 11.2031L17.1702 13.7889C17.5607 14.1795 17.5607 14.8126 17.1702 15.2031L16.5569 15.8164C14.4456 17.9278 11.103 18.1653 8.7143 16.3738L7.50589 15.4675C5.76236 14.1598 4.21354 12.611 2.90589 10.8675L1.99958 9.65905C0.208042 7.27033 0.445588 3.92776 2.55694 1.81641Z" />
</svg>
