<?xml version="1.0" standalone="no"?>
<!DOCTYPE svg PUBLIC "-//W3C//DTD SVG 20010904//EN"
 "http://www.w3.org/TR/2001/REC-SVG-20010904/DTD/svg10.dtd">
<svg version="1.0" xmlns="http://www.w3.org/2000/svg"
 width="24.000000pt" height="24.000000pt" viewBox="0 0 24.000000 24.000000"
 preserveAspectRatio="xMidYMid meet">
<metadata>
Created by potrace 1.16, written by Peter Selinger 2001-2019
</metadata>
<g transform="translate(0.000000,24.000000) scale(0.004687,-0.004687)"
fill="inherit" stroke="inherit">
<path d="M1866 5109 c-470 -61 -903 -275 -1242 -613 -319 -319 -516 -698 -600
-1151 -25 -138 -30 -488 -10 -640 66 -477 274 -893 613 -1232 565 -562 1372
-760 2143 -527 213 65 454 187 630 319 30 23 61 45 69 49 9 6 199 -177 660
-636 410 -409 659 -651 683 -661 54 -25 145 -22 199 6 68 36 103 93 107 176 3
51 0 79 -14 107 -11 26 -229 251 -662 685 -459 461 -642 651 -636 660 4 8 26
39 49 69 356 475 494 1115 369 1713 -83 396 -284 765 -576 1058 -338 340 -756
549 -1226 613 -123 17 -437 20 -556 5z m539 -446 c338 -52 672 -222 921 -471
432 -429 601 -1034 453 -1627 -108 -433 -413 -830 -816 -1060 -373 -213 -850
-273 -1268 -160 -491 133 -903 483 -1110 944 -103 231 -148 441 -147 701 0
228 31 400 108 602 194 511 644 911 1173 1042 225 56 451 66 686 29z"/>
<path d="M2633 4053 c-12 -2 -34 -18 -48 -34 l-25 -31 0 -1005 0 -1005 29 -29
29 -29 262 0 262 0 29 29 29 29 0 1006 0 1006 -29 32 -29 33 -244 1 c-133 1
-253 0 -265 -3z"/>
<path d="M1763 3404 c-66 -33 -64 -11 -61 -754 l3 -672 33 -29 32 -29 258 0
c278 0 282 1 311 57 8 15 11 217 11 688 0 739 2 713 -65 741 -52 21 -477 20
-522 -2z"/>
<path d="M913 2765 c-61 -26 -63 -37 -63 -420 0 -360 1 -373 44 -407 19 -16
50 -18 278 -18 l258 0 32 29 33 29 3 351 c3 392 2 405 -63 435 -45 22 -473 23
-522 1z"/>
</g>
</svg>
