<svg width="34" height="292" viewBox="0 0 34 292" fill="none" xmlns="http://www.w3.org/2000/svg">
<g filter="url(#filter0_bd_23_182)">
<path d="M0 0H6.89085C16.142 0 20.7676 0 24.301 1.80039C27.4092 3.38406 29.9361 5.91105 31.5198 9.01917C33.3202 12.5526 33.3202 17.1782 33.3202 26.4293V102.661C33.3202 107.261 33.3202 109.561 32.7914 111.6C31.9197 114.962 32.4469 113.79 30.5091 116.672C29.3334 118.42 22.4678 124.503 8.73649 136.67C5.5303 139.511 3.33202 143.391 3.33202 148.691C3.33202 152.475 4.45225 155.418 6.25968 157.705C22.6145 178.395 30.7919 188.741 31.5424 190.225C33.2156 193.533 32.2498 190.754 32.9887 194.387C33.3202 196.016 33.3202 193.447 33.3202 194.475V265.122C33.3202 274.374 33.3202 278.999 31.5198 282.533C29.9361 285.641 27.4092 288.168 24.301 289.751C20.7676 291.552 16.142 291.552 6.89085 291.552H0V0Z" fill="white" fill-opacity="0.4"/>
<path d="M32.9868 195.149C33.0019 195.162 33.0208 195.175 33.0434 195.187V265.122C33.0434 269.753 33.0432 273.209 32.8193 275.949C32.5956 278.687 32.1502 280.686 31.2732 282.407C29.7161 285.463 27.2314 287.948 24.1754 289.505C22.4542 290.382 20.4549 290.827 17.7175 291.051C14.9769 291.275 11.521 291.275 6.89085 291.275H0.276791V0.276791H6.89085C11.521 0.276791 14.9769 0.277006 17.7175 0.500921C20.4549 0.724571 22.4542 1.17001 24.1754 2.04701C27.2314 3.60415 29.7161 6.08879 31.2732 9.14483C32.1502 10.866 32.5956 12.8653 32.8193 15.6027C33.0432 18.3433 33.0434 21.7992 33.0434 26.4293V102.661C33.0434 107.276 33.0413 109.534 32.5234 111.531C32.3812 112.079 32.2748 112.513 32.1899 112.859C32.1451 113.041 32.1062 113.199 32.0712 113.337C31.9683 113.743 31.8967 113.982 31.7976 114.202C31.6986 114.422 31.5674 114.634 31.3318 114.981C31.2518 115.098 31.1591 115.232 31.0522 115.387C30.8496 115.68 30.5957 116.047 30.2794 116.517C30.0035 116.928 29.374 117.617 28.348 118.626C27.3283 119.628 25.9339 120.93 24.1448 122.559C20.5667 125.818 15.4192 130.379 8.55293 136.463C5.29463 139.35 3.05523 143.303 3.05523 148.691C3.05523 152.534 4.19456 155.539 6.04254 157.877L6.04376 157.878C14.2208 168.223 20.3528 175.981 24.5345 181.338C26.6255 184.016 28.2278 186.094 29.3539 187.593C29.917 188.343 30.36 188.947 30.685 189.409C31.0135 189.876 31.2119 190.185 31.2954 190.35C31.7159 191.181 31.9724 191.634 32.1327 191.902C32.1859 191.991 32.2307 192.063 32.2645 192.117C32.2801 192.143 32.2934 192.164 32.304 192.182C32.3413 192.243 32.3499 192.262 32.3544 192.275C32.359 192.288 32.3641 192.308 32.3728 192.379C32.3753 192.4 32.3781 192.425 32.3815 192.454C32.3887 192.518 32.3984 192.602 32.4118 192.705C32.4524 193.015 32.5318 193.529 32.7175 194.442C32.7597 194.65 32.7991 194.803 32.8379 194.911C32.8567 194.963 32.8803 195.018 32.9119 195.065C32.9279 195.089 32.9521 195.121 32.9868 195.149Z" stroke="url(#paint0_linear_23_182)" stroke-width="0.553582" style="mix-blend-mode:overlay"/>
</g>
<defs>
<filter id="filter0_bd_23_182" x="-16.6075" y="-8.375" width="66.5351" height="333.142" filterUnits="userSpaceOnUse" color-interpolation-filters="sRGB">
<feFlood flood-opacity="0" result="BackgroundImageFix"/>
<feGaussianBlur in="BackgroundImageFix" stdDeviation="4.1875"/>
<feComposite in2="SourceAlpha" operator="in" result="effect1_backgroundBlur_23_182"/>
<feColorMatrix in="SourceAlpha" type="matrix" values="0 0 0 0 0 0 0 0 0 0 0 0 0 0 0 0 0 0 127 0" result="hardAlpha"/>
<feOffset dy="16.6075"/>
<feGaussianBlur stdDeviation="8.30373"/>
<feColorMatrix type="matrix" values="0 0 0 0 0.269263 0 0 0 0 0.166562 0 0 0 0 0.4875 0 0 0 0.15 0"/>
<feBlend mode="normal" in2="effect1_backgroundBlur_23_182" result="effect2_dropShadow_23_182"/>
<feBlend mode="normal" in="SourceGraphic" in2="effect2_dropShadow_23_182" result="shape"/>
</filter>
<linearGradient id="paint0_linear_23_182" x1="0" y1="0" x2="65.7812" y2="7.51785" gradientUnits="userSpaceOnUse">
<stop stop-color="white" stop-opacity="0.6"/>
<stop offset="1"/>
</linearGradient>
</defs>
</svg>
